<svg width="279" height="280" viewBox="0 0 279 280" fill="none" xmlns="http://www.w3.org/2000/svg">
<path fill-rule="evenodd" clip-rule="evenodd" d="M3.38291 17.426C0.00390533 24.06 0.00390625 32.74 0.00390625 50.1V59.617L278.849 34.259C278.554 26.695 277.764 21.642 275.625 17.426C272.653 11.5932 267.911 6.85103 262.078 3.879C255.444 0.499999 246.764 0.5 229.404 0.5H49.6039C32.2439 0.5 23.5639 0.499999 16.9299 3.879C11.0971 6.85103 6.35493 11.5932 3.38291 17.426ZM279.004 65.383L203.596 72.234L242.439 279.423C251.615 279.221 257.366 278.523 262.078 276.121C267.911 273.149 272.653 268.407 275.625 262.574C279.004 255.94 279.004 247.26 279.004 229.9V65.383ZM210.928 279.5L172.581 75.055L0.00390625 90.741V229.9C0.00390625 247.26 0.00390533 255.94 3.38291 262.574C6.35493 268.407 11.0971 273.149 16.9299 276.121C23.5639 279.5 32.2439 279.5 49.6039 279.5H210.928ZM147.254 186.965C147.254 220.414 114.084 243.912 99.6224 252.577C97.6231 253.776 95.3354 254.41 93.0039 254.41C90.6724 254.41 88.3847 253.776 86.3854 252.577C71.9239 243.912 38.7539 220.414 38.7539 186.95C38.7539 154.136 65.0419 132.25 93.0039 132.25C121.942 132.25 147.254 154.136 147.254 186.965Z" fill="white"/>
</svg>
