<svg width="89" height="89" viewBox="0 0 89 89" fill="none" xmlns="http://www.w3.org/2000/svg">
<path d="M19.4688 41.7188H75.0938C75.8314 41.7188 76.5388 42.0118 77.0604 42.5334C77.582 43.0549 77.875 43.7624 77.875 44.5C77.875 45.2376 77.582 45.9451 77.0604 46.4666C76.5388 46.9882 75.8314 47.2812 75.0938 47.2812H19.4688C18.7311 47.2812 18.0237 46.9882 17.5021 46.4666C16.9805 45.9451 16.6875 45.2376 16.6875 44.5C16.6875 43.7624 16.9805 43.0549 17.5021 42.5334C18.0237 42.0118 18.7311 41.7188 19.4688 41.7188Z" fill="white"/>
<path d="M20.6213 44.5L43.6889 67.5621C44.2112 68.0844 44.5046 68.7927 44.5046 69.5313C44.5046 70.2698 44.2112 70.9781 43.6889 71.5004C43.1667 72.0226 42.4584 72.316 41.7198 72.316C40.9812 72.316 40.2729 72.0226 39.7507 71.5004L14.7194 46.4691C14.4604 46.2108 14.2549 45.9039 14.1147 45.566C13.9745 45.2281 13.9023 44.8658 13.9023 44.5C13.9023 44.1342 13.9745 43.7719 14.1147 43.434C14.2549 43.0961 14.4604 42.7892 14.7194 42.5309L39.7507 17.4996C40.2729 16.9774 40.9812 16.684 41.7198 16.684C42.4584 16.684 43.1667 16.9774 43.6889 17.4996C44.2112 18.0219 44.5046 18.7302 44.5046 19.4688C44.5046 20.2073 44.2112 20.9156 43.6889 21.4379L20.6213 44.5Z" fill="white"/>
</svg>
