<svg width="277" height="272" viewBox="0 0 277 272" fill="none" xmlns="http://www.w3.org/2000/svg">
<path d="M110.919 163.325L23.687 198.149C18.1703 200.447 12.9433 199.932 8.00586 196.604C3.06844 193.276 0.595132 188.619 0.585938 182.633V175.048C0.585938 172.289 1.22035 169.646 2.48919 167.117C3.75802 164.589 5.53715 162.52 7.82656 160.911L110.919 88.8497V28.1664C110.919 20.5809 113.622 14.0897 119.029 8.69253C124.435 3.29539 130.926 0.592226 138.503 0.583031C146.079 0.573837 152.575 3.277 157.99 8.69253C163.406 14.1081 166.104 20.5993 166.086 28.1664V88.8497L269.179 160.911C271.477 162.52 273.261 164.589 274.53 167.117C275.799 169.646 276.428 172.289 276.419 175.048V182.633C276.419 188.609 273.951 193.266 269.013 196.604C264.076 199.942 258.844 200.456 253.318 198.149L166.086 163.325V212.975L201.599 237.8C203.438 239.179 204.877 240.848 205.916 242.806C206.955 244.764 207.47 246.888 207.461 249.178V257.453C207.461 262.05 205.562 265.788 201.765 268.665C197.968 271.543 193.775 272.288 189.187 270.9L138.503 255.729L87.8182 270.9C83.221 272.279 79.0237 271.534 75.2264 268.665C71.4291 265.797 69.5351 262.059 69.5443 257.453V249.178C69.5443 246.879 70.0638 244.755 71.1027 242.806C72.1417 240.857 73.576 239.188 75.4057 237.8L110.919 212.975V163.325Z" fill="rgb(208, 223, 0)"/>
</svg>
