<svg width="195" height="194" viewBox="0 0 195 194" fill="none" xmlns="http://www.w3.org/2000/svg">
<path d="M30.823 17.0845C48.0445 7.16225 71.4042 0.25 97 0.25C122.596 0.25 145.956 7.16225 163.177 17.0845C171.777 22.051 179.173 27.942 184.537 34.4458C189.805 40.842 193.75 48.6143 193.75 57.0745C193.75 65.5885 189.665 72.2535 183.108 76.6503C177.26 80.574 169.67 82.595 161.812 83.8205C155.577 84.788 148.278 85.3793 140.108 85.7233L131.658 86.0028L122.66 86.164L113.146 86.2285H80.8535L71.3397 86.164L62.342 86.0028L53.8925 85.7233C46.629 85.4756 39.384 84.8404 32.1883 83.8205C24.3408 82.595 16.7405 80.574 10.8925 76.6503C4.335 72.2428 0.25 65.5778 0.25 57.0745C0.25 48.6143 4.1845 40.842 9.46275 34.4458C14.827 27.9528 22.2122 22.051 30.823 17.0845ZM14.612 96.011C19.9094 92.4797 26.1335 90.5953 32.5 90.5953C38.8665 90.5953 45.0906 92.4797 50.388 96.011L58.7837 101.601C60.5503 102.78 62.6264 103.409 64.75 103.409C66.8736 103.409 68.9497 102.78 70.7163 101.601L79.1013 96.011C84.4009 92.4751 90.6291 90.5882 97 90.5882C103.371 90.5882 109.599 92.4751 114.899 96.011L123.284 101.601C125.05 102.78 127.126 103.409 129.25 103.409C131.374 103.409 133.45 102.78 135.216 101.601L143.601 96.011C148.901 92.4751 155.129 90.5882 161.5 90.5882C167.871 90.5882 174.099 92.4751 179.399 96.011L189.332 102.633C190.506 103.417 191.515 104.424 192.3 105.597C193.086 106.77 193.632 108.087 193.909 109.471C194.185 110.856 194.186 112.281 193.912 113.666C193.637 115.051 193.093 116.369 192.309 117.543C191.526 118.718 190.519 119.727 189.345 120.512C188.172 121.297 186.856 121.844 185.471 122.12C184.087 122.397 182.661 122.398 181.276 122.123C179.891 121.849 178.574 121.304 177.399 120.521L167.466 113.899C165.7 112.72 163.624 112.091 161.5 112.091C159.376 112.091 157.3 112.72 155.534 113.899L147.149 119.489C141.849 123.025 135.621 124.912 129.25 124.912C122.879 124.912 116.651 123.025 111.351 119.489L102.966 113.899C101.2 112.72 99.1236 112.091 97 112.091C94.8764 112.091 92.8003 112.72 91.0337 113.899L82.6487 119.489C77.3491 123.025 71.1209 124.912 64.75 124.912C58.3791 124.912 52.1509 123.025 46.8513 119.489L38.4662 113.899C36.6997 112.72 34.6236 112.091 32.5 112.091C30.3764 112.091 28.3003 112.72 26.5338 113.899L22.696 116.543C20.6535 117.941 18.2885 119.5 16.0095 120.704C13.4953 121.957 10.5903 122.176 7.91644 121.315C5.24253 120.453 3.01215 118.579 1.70269 116.094C0.393232 113.608 0.108744 110.709 0.910124 108.016C1.7115 105.324 3.53507 103.052 5.9905 101.687C6.75733 101.286 7.48833 100.856 8.1835 100.397L14.612 96.011ZM11 129.25C8.14892 129.25 5.41462 130.383 3.3986 132.399C1.38259 134.415 0.25 137.149 0.25 140V150.75C0.25 162.154 4.78034 173.092 12.8444 181.156C20.9085 189.22 31.8457 193.75 43.25 193.75H150.75C162.154 193.75 173.092 189.22 181.156 181.156C189.22 173.092 193.75 162.154 193.75 150.75V140C193.75 137.149 192.617 134.415 190.601 132.399C188.585 130.383 185.851 129.25 183 129.25H11Z" fill="white"/>
</svg>
