<svg width="229" height="204" viewBox="0 0 229 204" fill="none" xmlns="http://www.w3.org/2000/svg">
<path d="M137.03 84.3491C135.038 82.3573 132.336 81.2383 129.518 81.2383C126.701 81.2383 123.999 82.3573 122.007 84.3491L114.495 91.8504C110.487 95.7212 105.119 97.8631 99.5474 97.8147C93.9757 97.7663 88.6459 95.5315 84.706 91.5915C80.7661 87.6516 78.5312 82.3218 78.4828 76.7502C78.4344 71.1785 80.5763 65.8107 84.4471 61.8029L144.266 1.96288C158.428 -1.25834 173.246 0.0673593 186.611 5.75148C199.977 11.4356 211.21 21.1888 218.714 33.6242C226.218 46.0597 229.61 60.5443 228.409 75.0186C227.207 89.4928 221.473 103.22 212.022 114.248L189.624 136.932L137.03 84.3491ZM20.5803 20.4716C31.5716 9.47371 45.9526 2.50663 61.3958 0.697947C76.839 -1.11073 92.4407 2.34483 105.676 10.5054L69.4128 46.7791C61.5587 54.6175 57.0817 65.2167 56.9383 76.312C56.795 87.4072 60.9966 98.1186 68.6454 106.157C76.2943 114.196 86.7837 118.924 97.8724 119.332C108.961 119.74 119.77 115.795 127.988 108.34L129.518 106.885L174.6 151.956L129.518 197.038C125.533 201.022 120.129 203.26 114.495 203.26C108.86 203.26 103.456 201.022 99.4709 197.038L20.5696 118.137C7.61916 105.185 0.34375 87.6196 0.34375 69.3041C0.34375 50.9886 7.62978 33.4232 20.5803 20.4716Z" fill="white"/>
</svg>
