<svg width="203" height="184" viewBox="0 0 203 184" fill="none" xmlns="http://www.w3.org/2000/svg">
<path d="M169.556 119.83C173.09 111.259 175.009 102.083 175.009 92.0001C175.009 84.7401 173.898 77.7826 171.979 71.3293C165.415 72.8418 158.548 73.6484 151.378 73.6484C136.695 73.6642 122.223 70.1548 109.182 63.4161C96.1411 56.6774 84.914 46.907 76.4471 34.9284C67.3984 56.8167 50.3092 74.4213 28.681 84.1351C28.277 86.6559 28.277 89.3784 28.277 92.0001C28.277 101.627 30.176 111.159 33.8655 120.053C37.555 128.947 42.9629 137.028 49.7802 143.835C63.5484 157.583 82.2222 165.306 101.693 165.306C112.297 165.306 122.496 162.987 131.686 158.853C137.442 169.843 140.068 175.288 139.866 175.288C123.304 180.834 110.479 183.557 101.693 183.557C77.255 183.557 53.9273 173.978 36.7598 156.735C26.3083 146.349 18.5448 133.579 14.1391 119.528L0.708008 119.528L0.708008 73.6484L11.7154 73.6484C15.0504 57.4396 22.7177 42.4346 33.9038 30.2255C45.09 18.0164 59.3776 9.0587 75.2507 4.30291C91.1238 -0.452886 107.99 -0.829376 124.06 3.21338C140.13 7.25614 154.805 15.5673 166.526 27.2651C179.248 39.9255 187.928 56.066 191.469 73.6484L202.679 73.6484L202.679 119.528L202.073 119.528L166.122 152.5L112.6 146.45L112.6 129.611L161.376 129.611L169.556 119.83ZM74.1244 89.6809C77.154 89.6809 80.0826 90.8909 82.2032 93.1093C84.3345 95.2547 85.5304 98.1541 85.5304 101.176C85.5304 104.198 84.3345 107.097 82.2032 109.243C80.0826 111.36 77.154 112.57 74.1244 112.57C67.7623 112.57 62.6121 107.528 62.6121 101.176C62.6121 94.8234 67.7623 89.6809 74.1244 89.6809ZM129.161 89.6809C135.524 89.6809 140.573 94.8234 140.573 101.176C140.573 107.528 135.524 112.57 129.161 112.57C122.799 112.57 117.649 107.528 117.649 101.176C117.649 98.1273 118.862 95.2035 121.021 93.0477C123.18 90.892 126.108 89.6809 129.161 89.6809Z" fill="white"/>
</svg>
